<?xml version="1.0" standalone="no"?><!DOCTYPE svg PUBLIC "-//W3C//DTD SVG 1.1//EN" "http://www.w3.org/Graphics/SVG/1.1/DTD/svg11.dtd"><svg t="1670909339030" class="icon" viewBox="0 0 1024 1024" version="1.1" xmlns="http://www.w3.org/2000/svg" p-id="14904" xmlns:xlink="http://www.w3.org/1999/xlink" width="200" height="200"><path d="M558.545455 0a93.090909 93.090909 0 0 1 93.090909 93.090909v186.181818h209.454545A116.363636 116.363636 0 0 1 977.454545 395.636364v46.545454a116.363636 116.363636 0 0 1-116.363636 116.363637h-2.606545l96.302545 315.112727A116.363636 116.363636 0 0 1 843.496727 1024H180.503273a116.363636 116.363636 0 0 1-111.243637-150.341818L165.376 558.545455H162.909091A116.363636 116.363636 0 0 1 46.545455 442.181818v-46.545454A116.363636 116.363636 0 0 1 162.909091 279.272727H372.363636V93.090909a93.090909 93.090909 0 0 1 93.090909-93.090909h93.09091z m17.826909 558.219636A46.545455 46.545455 0 0 1 581.818182 465.454545h279.272727a23.272727 23.272727 0 0 0 23.226182-21.736727L884.363636 442.181818v-46.545454a23.272727 23.272727 0 0 0-21.736727-23.226182L861.090909 372.363636h-698.181818a23.272727 23.272727 0 0 0-23.226182 21.736728L139.636364 395.636364v46.545454a23.272727 23.272727 0 0 0 21.736727 23.226182L162.909091 465.454545h186.181818a46.545455 46.545455 0 0 1 0 93.09091H280.064a23.272727 23.272727 0 0 0-21.690182 14.894545l-0.558545 1.582545-99.607273 325.818182a23.272727 23.272727 0 0 0 20.759273 30.021818l1.536 0.046546h99.188363l42.496-158.626909a46.545455 46.545455 0 1 1 89.925819 24.110545L376.087273 930.909091h467.456a23.272727 23.272727 0 0 0 22.667636-28.578909l-0.418909-1.489455-99.560727-325.818182A23.272727 23.272727 0 0 0 745.658182 558.545455L743.936 558.545455H581.818182zM558.545455 93.090909H465.454545v186.181818h93.09091V93.090909z" p-id="14905" fill="#1296db"></path></svg>