<?xml version="1.0" standalone="no"?><!DOCTYPE svg PUBLIC "-//W3C//DTD SVG 1.1//EN" "http://www.w3.org/Graphics/SVG/1.1/DTD/svg11.dtd"><svg t="1678436339197" class="icon" viewBox="0 0 1837 1024" version="1.1" xmlns="http://www.w3.org/2000/svg" p-id="13452" xmlns:xlink="http://www.w3.org/1999/xlink" width="358.7890625" height="200"><path d="M1753.197253 658.828941c13.12506 49.392749 9.199808 96.65932-14.637917 142.372145-24.77815 47.511899-65.747964 67.015493-116.530906 68.446574-48.370548 1.349305-96.781984 0.858649-145.152532 0a37.944098 37.944098 0 0 0-32.710429 15.455678c-61.332056 72.617154-136.034499 123.154768-232.652931 134.930522a457.455359 457.455359 0 0 1-54.99441 2.739499c-242.6705 0.20444-485.341-2.248842-727.807059 1.022201-140.205079 1.88085-244.674014-56.752595-324.814567-167.109408-147.769366-203.417984-136.238939-531.299153 25.555023-721.510301C205.17617 46.121706 300.404408 0.081776 418.979716 0.654209c237.150615 1.267529 474.30123 2.780387 711.451844-0.572433 130.841719-1.88085 235.923974 43.7502 318.640473 144.252995a35.327264 35.327264 0 0 0 24.042166 10.549113c50.41495 0.981313 100.911675-0.572433 151.285737 0.899537 27.026992 0.817761 53.563329 5.519885 76.297077 23.837726 53.645105 43.300431 66.197732 100.748123 56.343715 164.615237-2.821275 18.440505 0 26.822552 15.660119 36.799233 49.801629 31.810893 65.052867 82.06229 64.235106 137.588245-0.572433 40.397381-12.675291 78.177927-42.360007 107.535537-11.857531 11.775755-26.291008 21.057339-41.378693 32.669542zM937.276473 102.301869h-26.495448c-163.552148 0-327.104296 2.003514-490.656444-0.776873-95.882447-1.635521-168.049832 37.984986-225.129532 110.765692-119.924613 152.921259-126.752915 414.482032-14.80147 579.628814 58.510781 86.273758 136.525156 134.071874 245.328223 131.823031 161.466858-3.393707 323.015493-1.144865 484.605015-1.267529H936.336049c-220.345632-221.940265-194.586168-629.839323 0.940424-820.173135z m-51.314486 465.101421l-6.86919 4.497684c12.021083 44.404408 23.428845 89.013257 36.799233 133.049673 2.044402 6.66475 12.266411 14.147261 19.78981 15.373902q191.478678 31.156684 383.243571 60.514295c24.941703 3.843475 50.169621 5.519885 78.505031 8.545599-24.001278-52.336687-21.466219-100.339243 1.839962-149.323111-175.205239-9.854017-343.663951-45.385721-513.308417-72.658042z m437.01134-133.908321L896.224884 366.60214c-6.419422 49.270085-12.757068 98.131289-18.972049 145.765852 67.301709 21.261779 415.013576 74.865996 440.609487 68.773679-17.009423-52.950008-23.347069-77.68727 5.111005-147.646702z m75.765533-200.555822a44.976841 44.976841 0 0 0-8.5456-2.453282q-209.428526-0.245328-418.857052 0c-4.088804 0-10.385561 1.717298-12.266411 4.702124-15.128574 26.04568-29.439387 52.582016-44.486184 79.854337 107.944418 30.4207 441.5908 76.297077 483.296598 66.565724-23.592397-49.024756-24.123942-98.294841 0.858649-148.709791z m-56.180163 612.502795H1006.663472c94.57403 102.383645 243.406485 101.565884 335.895225 0z m1.063089-665.739019c-107.576425-113.055422-258.28973-90.730554-335.690785 0z m8.545599 339.656924c3.434595 10.590002 6.582974 28.376298 14.678806 43.545759 17.172976 32.056221 48.574988 34.468615 70.940744 7.318959 26.495448-32.137997 23.551509-93.142948-5.846989-122.009903-16.355215-15.946334-35.899697-16.355215-52.541128-1.799073-19.99425 17.70452-24.57371 41.46047-27.231433 72.944258z m231.753394 197.734547c0 24.532822 6.25587 46.939467 24.532823 64.480434 16.355215 15.701006 35.572592 15.701006 52.295799 0.20444 34.182399-31.606453 33.977959-98.908162-0.40888-130.432838-16.355215-15.00591-36.267689-14.678805-52.377576 1.022201-18.031624 17.827184-24.123942 40.19294-24.042166 64.807539z m26.291008-211.881808c-3.230155-10.140233-6.582974-27.722089-14.310813-43.136879-13.779268-27.517649-41.951126-34.100623-62.06804-16.723207-36.022361 31.074908-36.267689 102.220093-0.40888 133.622105a35.286376 35.286376 0 0 0 49.515413-0.367993c19.708034-17.540968 24.941703-41.051589 27.27232-73.31225z m-72.985146-195.935474c-5.151893-25.718575-10.671778-47.675451-28.376298-65.093755-17.050311-16.723207-36.799233-16.968535-53.972209-0.61332-30.62514 29.194058-33.11931 91.507427-4.906564 123.481872 20.444019 23.306181 45.344833 24.532822 63.131129-1.103977 11.489538-16.396103 16.314327-37.535218 24.123942-56.589044z m149.404888-1.226641c-1.431081-23.837726-6.133206-48.247884-26.863441-66.320396-15.373902-13.452164-34.632167-13.53394-49.719853 0-35.00016 31.156684-35.00016 101.770324 0 132.559016a35.449928 35.449928 0 0 0 49.678965 0c19.176489-17.254752 25.105255-39.906724 26.781664-66.156844z m79.200127 204.440185c-5.846989-17.868072-9.036256-35.61348-17.091199-50.742054-18.317841-34.468615-56.302827-34.509503-75.1931-0.449768s-18.808497 69.141671 0.490656 102.874301 55.689506 33.405526 74.170899 0c8.586488-15.61923 11.898419-34.100623 17.622744-51.723367z m-233.061811 204.76729c-0.449768-25.391471-6.378534-48.656764-25.963903-66.44306a35.40904 35.40904 0 0 0-49.678965-0.327104c-35.245488 31.03402-35.490816 101.116116-0.449769 132.354575 16.109887 14.392589 35.081936 14.065485 51.069158-0.899536 18.481393-17.581856 24.451046-40.070276 24.819039-64.725763z m-490.615557 77.114838l0.286217-5.560773-89.708354-14.433477c-0.940425 1.962626-1.921738 4.088804-2.862162 5.846989 6.378534 4.743012 12.552627 13.043284 19.217377 13.493052 24.246606 1.67641 48.697652 0.654209 73.066922 0.654209z" p-id="13453" fill="#1296db"></path></svg>