<?xml version="1.0" standalone="no"?><!DOCTYPE svg PUBLIC "-//W3C//DTD SVG 1.1//EN" "http://www.w3.org/Graphics/SVG/1.1/DTD/svg11.dtd"><svg t="1670909413758" class="icon" viewBox="0 0 1024 1024" version="1.1" xmlns="http://www.w3.org/2000/svg" p-id="18146" xmlns:xlink="http://www.w3.org/1999/xlink" width="200" height="200"><path d="M145.621959 0c-44.79888 0-79.998 36.81188-79.998 81.61076v860.77848c0 44.79888 35.19912 81.61076 79.998 81.61076h732.781681a81.969151 81.969151 0 0 0 81.61076-81.61076V324.80468L657.60916 0h-511.987201z" fill="#25B39E" p-id="18147"></path><path d="M657.60916 0v233.59416c0 25.59936 17.61236 92.79768 97.61036 92.79768h204.79488L657.60916 0z" fill="#FFFFFF" p-id="18148"></path><path d="M158.498438 694.485038c0-3.507112 0.511987-7.19342 1.510362-11.110122 3.404715-13.59326 7.372616-26.930527 11.929302-39.986201s8.678183-26.034549 12.36449-38.936626 6.78383-23.781805 9.21577-32.613585 4.633484-16.460388 6.527837-22.80903 3.660708-11.826904 5.247869-16.434789 3.353516-9.138972 5.247868-13.644459c1.20317-2.687933 2.534337-5.503862 3.967901-8.39659s3.020724-5.58066 4.735882-8.0126 3.481513-4.454289 5.324667-5.99025 3.763106-2.329542 5.785455-2.329542c4.095898 0 7.21902 0.665583 9.369366 2.02235s3.481513 2.585535 3.9935 3.686308l1.356766 6.143846c1.510362-0.102397 3.455914-0.38399 5.862254-0.819179s4.81268-0.921577 7.270218-1.433565 4.735882-0.998375 6.835029-1.510362 3.711907-0.947176 4.81268-1.356766c6.604635-1.791955 12.697283-3.353516 18.303542-4.659083s10.930927-2.38074 15.974001-3.22552 9.881353-1.484763 14.463638-1.868753 9.241369-0.588785 13.951651-0.588785c4.607885 0 8.345391 0.255994 11.238119 0.742381s5.19667 1.177571 6.911828 2.02235 2.867128 1.843154 3.532711 2.995125 0.972776 2.38074 0.972776 3.686308c0 1.20317-0.332792 2.483138-0.972776 3.814304s-1.715157 2.636734-3.225519 3.814305-3.455914 2.252744-5.862254 3.148721-5.401465 1.510362-9.010974 1.791955c-0.895978 0.204795-2.969526 0.563186-6.220645 1.126372l-10.572535 1.791955-10.80293 1.868754a129.60956 129.60956 0 0 0-7.039824 1.356766h0.153596c-0.588785 0.102397-2.022349 0.486388-4.275093 1.126372s-4.966276 1.407965-8.166196 2.252743-6.681433 1.817555-10.41894 2.918327l-11.110122 3.22552a687.163621 687.163621 0 0 0-17.637959 5.324667c-6.092648 2.40634-10.879728 5.58066-14.335642 9.522961s-6.169446 8.370991-8.166195 13.286068c-0.40959 0.895978-0.998375 2.431939-1.791956 4.582286l-2.636734 7.347016-3.071923 8.780581-3.148721 8.857378c-0.998375 2.81593-1.868753 5.350266-2.636734 7.654209s-1.279968 3.9935-1.587161 5.094272c-0.307192 0.998375-0.511987 1.894353-0.588785 2.687933s-0.153596 1.407965-0.153596 1.791955c0 0.588785 0.153596 0.895978 0.460788 0.895978 1.510362 0 4.633484-0.665583 9.369366-2.022349s10.290943-3.020724 16.639584-5.017475l20.40269-6.451039c7.244619-2.303942 14.207645-4.454289 20.837879-6.451038s12.569286-3.686308 17.765956-5.017475 8.959776-2.022349 11.238119-2.022349c3.507112 0 5.862253 0.563186 7.039824 1.715157s1.791955 2.431939 1.791955 3.814304c0 3.60951-1.279968 6.758231-3.814304 9.446164s-5.734257 5.043074-9.522962 7.039824c-1.20317 0.588785-3.430314 1.484763-6.681433 2.636734s-6.758231 2.329542-10.495738 3.532712l-10.726132 3.455914-7.347016 2.406339c-9.804555 3.788705-17.765956 6.937427-23.935402 9.369366s-11.135722 4.454289-14.924427 5.99025l-8.78058 3.532712c-2.047949 0.81918-3.942301 1.484763-5.708657 2.02235s-3.686308 1.075173-5.785456 1.58716-4.940676 1.254369-8.652583 2.150346c-0.895978 2.099148-1.945551 5.273468-3.148722 9.522962s-2.355141 8.652584-3.455913 13.20927-2.022349 8.78058-2.764731 12.671683-1.126372 6.604635-1.126372 8.089398c0 1.791955 0.255994 3.123122 0.742381 3.967901s1.100772 1.433564 1.791956 1.715157 1.407965 0.460788 2.099147 0.460788h1.638359c4.81268 0 10.572536-0.691183 17.330767-2.099147s13.414065-3.251119 20.018699-5.555061c6.297443-2.201545 11.801305-4.607885 16.511588-7.193421s9.113372-5.017475 13.286068-7.270218 8.191795-4.147096 12.159696-5.708657 8.268593-2.38074 12.978875-2.483138c0.998375 0 2.175946 0.102397 3.532712 0.307192s2.636734 0.563186 3.814304 1.126372 2.175946 1.279968 2.918327 2.175946 1.023974 2.047949 0.81918 3.455913c-0.40959 2.892728-1.843154 5.759856-4.351891 8.550186s-5.657459 5.503862-9.446164 8.089398-8.038199 5.094273-12.748481 7.500613-9.497363 4.684683-14.41244 6.835029-9.702157 4.095898-14.41244 5.862253-8.908577 3.276718-12.594885 4.582286c-9.19017 3.19992-18.149946 5.555061-26.853729 7.039824s-16.460388 2.252744-23.372215 2.252743c-7.60301 0-13.414065-1.433564-17.484363-4.275093s-6.067048-7.577411-6.067048-14.182045zM336.541986 699.579311a14.489238 14.489238 0 0 1-13.721257 1.638359c-1.356766-0.691183-2.508737-1.61276-3.455913-2.764731a12.902077 12.902077 0 0 1-2.918327-8.319792c0-2.099148 0.435189-3.865503 1.279968-5.324667s1.894353-2.687933 3.148721-3.737507 2.611135-1.919952 4.044699-2.636734 2.764731-1.305567 3.967901-1.791955c3.9935-2.611135 8.498988-5.811055 13.490863-9.59976s10.137347-7.884603 15.462013-12.236494 10.572536-8.78058 15.820404-13.286068l14.924427-12.902077 6.758231-5.990251a121.59696 121.59696 0 0 0-13.59326-31.128821l-5.017474-8.166196-3.686308-5.990251a7.782205 7.782205 0 0 1-1.279968-4.198295 14.258844 14.258844 0 0 1 7.116622-11.340516 11.417315 11.417315 0 0 1 5.785455-1.433564c3.19992 0 6.01585 0.665583 8.473388 2.022349s4.633484 3.071923 6.527837 5.171071 3.558311 4.377491 4.940677 6.835029 2.662333 4.78708 3.737506 6.963026c0.588785 1.20317 1.254369 2.79033 1.945552 4.81268s1.382365 4.121497 2.022349 6.37424l1.868753 6.604635 1.510363 5.631859c4.40309-4.198295 8.678183-8.601385 12.825279-13.209269a587.556511 587.556511 0 0 0 18.892328-22.194646c1.740756-2.201545 3.58391-4.223894 5.478263-6.067048s3.839904-3.379116 5.862253-4.582285 4.147096-1.791955 6.451039-1.791955c3.891103 0 6.681433 0.998375 8.319792 2.995125s2.483138 4.607885 2.483138 7.807804c0 3.404715-0.614385 6.527837-1.868753 9.369366s-2.867128 5.068673-4.863879 6.681433c-2.892728 2.303942-6.067048 5.068673-9.522962 8.319792s-6.937427 6.681433-10.495737 10.265344l-10.572536 10.649333c-3.507112 3.507112-6.707032 6.655834-9.59976 9.446164-1.20317 1.100772-2.227144 2.201545-3.071923 3.302318s-1.279968 2.508737-1.279968 4.198295c0 0.998375 0.281593 2.252744 0.819179 3.737506s1.254369 3.097523 2.099148 4.81268l2.559936 5.171071c0.870378 1.740756 1.58716 3.327917 2.175945 4.735881 1.20317 2.687933 2.867128 5.887853 5.017475 9.59976s4.300692 7.577411 6.451039 11.62211 4.0191 8.166196 5.631859 12.364491 2.40634 8.191795 2.40634 12.006099a20.761081 20.761081 0 0 1-3.737507 12.082898c-1.075173 1.561561-2.329542 2.764731-3.686308 3.686308s-2.636734 1.356766-3.814304 1.356766c-2.611135 0-4.684683-0.307192-6.220645-0.895977s-2.867128-1.510362-3.967901-2.687933-2.022349-2.662333-2.764731-4.428689-1.58716-3.763106-2.483137-6.067049c-1.305567-3.711907-2.995125-7.961401-5.094273-12.748481s-4.275093-9.548561-6.527837-14.258844-4.377491-9.062173-6.374241-13.132471-3.558311-7.116622-4.659083-9.21577l-8.626984 6.835029-11.468514 9.062174-17.919552 14.105247c-7.244619 5.708657-16.588385 12.953276-28.0057 21.861854zM490.752531 646.921427a158.588035 158.588035 0 0 1 22.041049-48.510787c5.299068-7.833404 11.314917-15.103622 18.073148-21.759456s14.130847-12.082898 22.117847-16.281193c2.611135-1.407965 5.452664-2.457539 8.550187-3.148722s6.246244-1.049574 9.446163-1.049573c3.302317 0 6.374241 0.307192 9.21577 0.895977s5.299068 1.61276 7.347016 2.995125 3.686308 3.19992 4.863879 5.401465 1.791955 4.889478 1.791955 8.089398c0 2.40634-0.358391 4.81268-1.049574 7.270218s-1.740756 4.659084-3.148721 6.604635-3.148721 3.532712-5.247869 4.735882-4.556686 1.791955-7.347016 1.791955c-2.201545 0-4.223894-0.40959-6.067048-1.20317a47.102822 47.102822 0 0 1-7.884603-4.275093 19.916302 19.916302 0 0 0-2.841529-1.279968c-3.9935 1.791955-7.782205 4.172696-11.314917 7.116622s-6.860628 6.220644-9.906953 9.830154-5.862253 7.449414-8.39659 11.545312-4.838279 8.191795-6.911827 12.287693-3.788705 8.114997-5.247869 12.082897-2.636734 7.577411-3.532712 10.879728c-0.691183 2.40634-1.331167 5.119872-1.868753 8.166196s-0.81918 6.01585-0.819179 8.934177c0 1.99675 0.179196 3.891103 0.537586 5.708657s0.972776 3.404715 1.868753 4.81268 2.099148 2.508737 3.60951 3.302317 3.353516 1.20317 5.555061 1.20317c3.507112 0 6.963026-0.460788 10.41894-1.356766s6.835029-2.047949 10.137346-3.455913 6.527837-3.020724 9.676559-4.863879a314.129747 314.129747 0 0 0 14.924426-9.369366c1.919952-1.279968 3.711907-2.457539 5.401465-3.455913s3.276718-1.817555 4.735882-2.483138 2.713532-0.972776 3.814305-0.972776c1.510362 0 2.892728 0.38399 4.198295 1.126372s1.945551 2.022349 1.945551 3.814305a12.79968 12.79968 0 0 1-0.895978 4.351891c-1.407965 3.891103-3.302317 7.398215-5.708657 10.495738s-5.068673 5.862253-8.0126 8.319792-6.092648 4.633484-9.446163 6.527836-6.681433 3.660708-9.983751 5.247869c-6.195045 3.302317-12.466888 5.785455-18.815529 7.423815s-11.673308 2.483138-15.974001 2.483137c-1.407965 0-3.046324-0.153596-4.940677-0.460788s-3.558311-0.742381-4.940676-1.356766c-8.089398-3.507112-14.00285-8.191795-17.689158-14.105247s-5.555061-12.902077-5.555061-20.991476c0-3.507112 0.281593-7.167821 0.81918-11.033324s1.356766-7.807805 2.457538-12.031699zM618.698133 647.689408c0-4.300692 1.151971-7.961401 3.455913-10.956526s5.350266-4.991875 9.138972-5.990251a138.287743 138.287743 0 0 1 13.644459-21.17067c3.404715-4.40309 7.270218-8.831779 11.622109-13.286068s9.138972-8.498988 14.41244-12.159696 10.905327-6.630234 16.946776-8.934177 12.466888-3.455914 19.276318-3.455913c5.811055 0 10.854129 0.691183 15.154821 2.099147s7.859004 3.353516 10.649334 5.862254 4.889478 5.478263 6.297443 8.934176 2.099148 7.167821 2.099147 11.186921c0 3.404715-0.460788 6.655834-1.356766 9.753356-1.407965 5.60626-3.9935 10.495738-7.807805 14.694032s-8.268593 7.884603-13.414064 11.033325-10.751731 5.785455-16.793181 7.884602-12.108497 3.839904-18.149946 5.247869-11.878103 2.483138-17.484363 3.22552-10.444539 1.331167-14.540436 1.715157c-0.895978 1.791955-1.663958 4.070298-2.329542 6.835029s-0.972776 5.427064-0.972776 8.012599c0 5.811055 2.303942 10.290943 6.911828 13.490863s10.956526 4.81268 19.045923 4.81268c4.710282 0 9.19017-0.537587 13.490863-1.58716s8.370991-2.40634 12.236494-4.044699 7.475013-3.455914 10.879728-5.401465 6.502237-3.865503 9.292568-5.785456c3.60951-2.40634 7.014225-4.428689 10.265343-6.067048s6.118247-2.483138 8.626985-2.483138 4.095898 0.614385 4.812679 1.868753 1.049574 2.585535 1.049574 3.967901a34.251944 34.251944 0 0 1-0.307192 4.198295 25.804155 25.804155 0 0 1-8.703783 14.566036c-10.39334 8.191795-21.068273 14.054049-32.024799 17.561161s-22.629834 5.247869-35.019925 5.247869c-2.40634 0-5.222269-0.153596-8.473388-0.460789s-6.630234-0.895978-10.137346-1.791955-6.937427-2.201545-10.342142-3.891103a31.538412 31.538412 0 0 1-15.513212-17.100372 40.037399 40.037399 0 0 1-2.483138-14.847629c0-4.710282 0.639984-9.958151 1.945552-15.743606-1.305567-0.204795-2.534337-0.870378-3.686308-2.02235s-1.715157-2.81593-1.715157-5.017474z m93.898452-41.547762c0.204795-0.511987 0.307192-0.947176 0.307192-1.356766v-1.356766c0-2.687933-0.998375-4.735882-2.995125-6.067048s-4.40309-2.022349-7.19342-2.022349c-4.40309 0-8.729382 1.151971-12.978875 3.455913s-8.242994 5.171071-12.0061 8.626984-7.065423 7.142221-9.983751 11.110123-5.145471 7.526212-6.758231 10.726132c7.19342-0.588785 13.798055-1.58716 19.788306-2.918327s11.21252-3.046324 15.666808-5.094273 8.038199-4.351891 10.80293-6.911827 4.556686-5.299068 5.350266-8.191796zM818.347541 499.929902c0.511987-3.9935 1.305567-7.705407 2.40634-11.110122s2.585535-6.220644 4.428689-8.473389 4.223894-3.379116 7.116623-3.379115c1.61276 0 3.379116 0.307192 5.324666 0.895977s3.788705 1.433564 5.555062 2.483138 3.225519 2.329542 4.428689 3.814305 1.791955 3.148721 1.791955 4.940676c0 0.79358-0.153596 1.715157-0.460788 2.764731s-0.537587 2.073548-0.742382 3.071924l-37.503062 150.293842c-1.510362 5.99025-2.739132 11.724507-3.737507 17.177171s-1.740756 9.932552-2.252744 13.414064v3.60951c0 2.995125-0.204795 6.271843-0.588785 9.830154s-1.151971 6.860628-2.252744 9.906953-2.636734 5.60626-4.582285 7.654208-4.479888 3.071923-7.577411 3.071924c-2.687933 0-5.043074-0.563186-7.039824-1.715158s-3.660708-2.636734-4.940676-4.428689-2.252744-3.737507-2.841529-5.785455-0.895978-3.967901-0.895978-5.785456c0-1.61276 0.153596-3.58391 0.460789-5.913452s0.665583-4.81268 1.126372-7.347016 0.921577-5.094273 1.433564-7.654209 0.998375-4.78708 1.510362-6.681433l38.706232-153.59616a193.275168 193.275168 0 0 1 1.126372-11.058923z" fill="#FFFFFF" p-id="18149"></path></svg>