<?xml version="1.0" standalone="no"?><!DOCTYPE svg PUBLIC "-//W3C//DTD SVG 1.1//EN" "http://www.w3.org/Graphics/SVG/1.1/DTD/svg11.dtd"><svg t="1664188683623" class="icon" viewBox="0 0 1024 1024" version="1.1" xmlns="http://www.w3.org/2000/svg" p-id="29319" xmlns:xlink="http://www.w3.org/1999/xlink" width="200" height="200"><path d="M912 648v232c0 17.673-14.327 32-32 32H648c0-35.346 28.654-64 64-64h136V712c0-34.993 28.084-63.426 62.942-63.991L912 648z m-792 0c30.619 0 55.498 24.573 55.992 55.074L176 704v144h144c30.619 0 55.498 24.573 55.992 55.074L376 904v8H144c-17.496 0-31.713-14.042-31.996-31.47L112 880V648h8z m537-313c17.496 0 31.713 14.042 31.996 31.47l0.004 0.53v290c0 17.496-14.042 31.713-31.47 31.996L657 689H367c-17.496 0-31.713-14.042-31.996-31.47L335 657V367c0-17.496 14.042-31.713 31.47-31.996L367 335h290z m-32 64H399v226h226V399z m255-287c17.496 0 31.713 14.042 31.996 31.47l0.004 0.53v232h-8c-30.619 0-55.498-24.573-55.992-55.074L848 320V176H704c-30.619 0-55.498-24.573-55.992-55.074L648 120v-8h232z m-504 0v8c0 30.928-25.072 56-56 56H176v144c0 30.928-25.072 56-56 56h-8V144c0-17.673 14.327-32 32-32h232z" fill="#1290db" fill-opacity=".65" p-id="29320"></path></svg>