<?xml version="1.0" standalone="no"?><!DOCTYPE svg PUBLIC "-//W3C//DTD SVG 1.1//EN" "http://www.w3.org/Graphics/SVG/1.1/DTD/svg11.dtd"><svg t="1678436067036" class="icon" viewBox="0 0 1024 1024" version="1.1" xmlns="http://www.w3.org/2000/svg" p-id="4438" xmlns:xlink="http://www.w3.org/1999/xlink" width="200" height="200"><path d="M768 725.333333 448 725.333333 533.333333 640 768 640M256 725.333333 256 618.666667 592.213333 283.733333C600.32 275.2 613.973333 275.2 622.506667 283.733333L697.6 358.826667C706.133333 367.36 706.133333 380.586667 697.6 389.12L361.386667 725.333333M810.666667 128 213.333333 128C165.973333 128 128 165.973333 128 213.333333L128 810.666667C128 857.6 166.4 896 213.333333 896L810.666667 896C857.6 896 896 857.6 896 810.666667L896 213.333333C896 165.973333 857.6 128 810.666667 128Z" p-id="4439" fill="#1296db"></path></svg>