<?xml version="1.0" standalone="no"?><!DOCTYPE svg PUBLIC "-//W3C//DTD SVG 1.1//EN" "http://www.w3.org/Graphics/SVG/1.1/DTD/svg11.dtd"><svg t="1670910008195" class="icon" viewBox="0 0 1024 1024" version="1.1" xmlns="http://www.w3.org/2000/svg" p-id="33019" xmlns:xlink="http://www.w3.org/1999/xlink" width="200" height="200"><path d="M512 52.2752c253.3888 0 459.6224 206.1824 459.7248 459.7248 0 253.5424-206.1824 459.776-459.7248 459.776-253.5424 0-459.7248-206.2336-459.7248-459.776S258.4576 52.2752 512 52.2752z m0 102.1952a357.888 357.888 0 0 0-357.5296 357.4784A357.888 357.888 0 0 0 512 869.4784c197.0688 0 357.4784-160.3584 357.4784-357.5296-0.1024-197.12-160.4096-357.4784-357.4784-357.4784z m0 0" fill="#00A0E9" p-id="33020"></path><path d="M470.3744 680.96c-36.5056 21.9136-82.2272-5.4272-82.2272-49.3056V392.3968c0-43.8272 45.6704-71.2704 82.2272-49.3056l199.3728 119.6544c36.5056 21.9648 36.5056 76.7488 0 98.6624L470.3744 680.96z" fill="#00A0E9" p-id="33021"></path></svg>