<?xml version="1.0" standalone="no"?><!DOCTYPE svg PUBLIC "-//W3C//DTD SVG 1.1//EN" "http://www.w3.org/Graphics/SVG/1.1/DTD/svg11.dtd"><svg t="1670909239882" class="icon" viewBox="0 0 1024 1024" version="1.1" xmlns="http://www.w3.org/2000/svg" p-id="8543" xmlns:xlink="http://www.w3.org/1999/xlink" width="200" height="200"><path d="M962.2594868 363.49812805l-131.29738679-58.8574493 0.90549921-1.81099841c3.16924728-7.01761894 0-15.16711192-7.01761892-18.3363592l-14.26161271-6.33849454c-7.01761894-3.16924728-15.16711192 0-18.33635919 7.01761896l-27.3913514 61.12119729c-3.16924728 7.01761894 0 15.16711192 7.01761894 18.33635922l14.26161269 6.33849454c7.01761894 3.16924728 15.16711192 0 18.33635923-7.01761898l0.90549922-1.81099843 22.18473087 9.96049143L714.1527007 625.18740242l57.27282562 25.58035294 113.41377724-252.86065699 93.4927944 41.87933889 7.01761894-15.84623632c12.45061426-28.07047581-2.26374801-51.16070589-23.0902301-60.44207289z" fill="#42362A" p-id="8544"></path><path d="M949.80887255 369.61024777l-131.29738682-58.85744927 0.90549921-1.81099843c3.16924728-7.01761894 0-15.16711192-7.01761894-18.33635922l-14.2616127-6.33849454c-7.01761894-3.16924728-15.16711192 0-18.33635918 7.01761897l-27.39135139 61.12119729c-3.16924728 7.01761894 0 15.16711192 7.01761896 18.33635922l14.26161269 6.33849454c7.01761894 3.16924728 15.16711192 0 18.3363592-7.01761896l0.90549921-1.81099843 22.18473088 9.96049141-113.41377722 252.86065702L758.74853728 656.87987509l113.41377721-252.86065699 93.4927944 41.87933889 7.01761895-15.84623633c10.41324103-22.86385526 0.22637482-50.02883187-22.86385529-60.44207289z" fill="#FFFFFF" p-id="8545"></path><path d="M509.50987713 370.51574699h-179.51522022L240.35023422 525.80886312l89.64442269 155.2931161h179.51522022l89.64442275-155.2931161-89.64442275-155.29311613z m-43.23758771 235.65617182h-92.58729516l-46.40683503-80.36305569 46.40683503-80.36305573h92.58729516l46.40683501 80.36305573-46.40683501 80.36305569z" fill="#42362A" p-id="8546"></path><path d="M475.55365642 370.51574699h-179.51522022L206.39401348 526.0352379l89.64442272 155.2931161h179.51522022l89.64442273-155.2931161-89.64442273-155.51949091z m-43.23758772 235.65617182h-92.58729518l-46.40683497-80.36305569 46.40683497-80.36305573h92.58729518l46.40683499 80.36305573-46.40683499 80.36305569z" fill="#FFD793" p-id="8547"></path><path d="M306.67805199 215.22263087h-28.52322539l-14.26161269 24.67485372 14.26161269 24.67485372h28.52322539l14.26161273-24.67485372-14.26161273-24.67485372z m-7.0176189 37.57821759h-14.71436231l-7.47036858-12.67698909 7.47036858-12.67698906h14.71436231l7.47036852 12.67698906-7.47036852 12.67698909z" fill="#42362A" p-id="8548"></path><path d="M301.2450567 215.22263087h-28.52322542l-14.2616127 24.67485372 14.2616127 24.67485372h28.52322542l14.26161272-24.67485372-14.26161272-24.67485372z m-6.79124413 37.57821759h-14.71436234l-7.47036856-12.67698909 7.47036856-12.67698906h14.71436234l7.47036853 12.67698906-7.47036853 12.67698909z" fill="#FFFFFF" p-id="8549"></path><path d="M451.55792714 212.27975837v-47.99145859l-41.65296412-23.99572932-41.65296408 23.99572932v47.99145859l41.65296408 23.99572936 41.65296412-23.99572936z m-63.1585706-11.545115v-24.90122854l21.50560648-12.45061428 21.50560645 12.45061428v24.90122854l-21.50560645 12.45061425-21.50560648-12.45061425z" fill="#42362A" p-id="8550"></path><path d="M451.55792714 203.2247662v-47.99145863l-41.65296412-23.99572928-41.65296408 23.99572928v47.99145863l41.65296408 23.99572931 41.65296412-23.99572931z m-63.1585706-11.54511503v-24.90122853l21.50560648-12.45061426 21.50560645 12.45061426v24.90122853l-21.50560645 12.45061424-21.50560648-12.45061424z" fill="#D63737" p-id="8551"></path><path d="M525.12973867 202.09289217H509.73625199l-7.69674341 13.3561135 7.69674341 13.35611348h15.61986151l7.69674333-13.35611348-7.92311816-13.3561135z m-3.62199684 20.37373245h-7.92311818l-4.07474652-7.01761895 4.07474652-7.01761895h7.92311818l4.07474645 7.01761895-4.07474645 7.01761895z" fill="#42362A" p-id="8552"></path><path d="M522.18686621 202.09289217h-15.61986151l-7.69674337 13.3561135 7.69674337 13.35611348h15.61986151l7.69674338-13.35611348-7.69674338-13.3561135z m-3.62199688 20.37373245h-7.92311817l-4.07474646-7.01761895 4.07474646-7.01761895h7.92311817l4.07474649 7.01761895-4.07474649 7.01761895z" fill="#B5926B" p-id="8553"></path><path d="M701.24933683 134.85957515h-25.58035296l-12.90336386 22.18473088 12.90336386 22.18473087h25.58035296l12.90336387-22.18473087-12.90336387-22.18473088z m-6.11211973 33.72984592H681.78110363l-6.56486933-11.54511504 6.56486933-11.54511504h13.35611347l6.56486935 11.54511504-6.56486935 11.54511504z" fill="#42362A" p-id="8554"></path><path d="M696.49546593 134.85957515h-25.58035294l-12.90336386 22.18473088 12.90336386 22.18473087h25.58035294l12.90336387-22.18473087-12.90336387-22.18473088z m-6.33849453 33.72984592h-13.35611351l-6.56486932-11.54511504 6.56486932-11.54511504h13.35611351l6.56486937 11.54511504-6.56486937 11.54511504z" fill="#FFD793" p-id="8555"></path><path d="M174.92791562 226.99412073l-67.00694225 7.92311813 58.85744927 79.00480694-35.76721917 26.93860175-59.08382407-79.00480689-26.71222698 62.02669653 55.9145768 74.93006039 61.12119731-7.24399375 100.51041336 134.46663407 44.36946172-33.27709631-100.51041331-134.46663408 24.2221041-56.36732641z" fill="#42362A" p-id="8556"></path><path d="M163.60917537 236.04911291l-67.00694222 7.92311818 59.08382404 79.00480686-35.99359397 26.71222696-59.08382406-78.77843204-26.48585215 62.02669652 55.91457677 74.7036856 60.89482253-7.24399379 100.51041332 134.46663406 44.36946175-33.05072147-100.51041331-134.46663407 24.22210407-56.36732641z" fill="#DBB383" p-id="8557"></path><path d="M543.01334823 397.45434878l160.49973666-52.74532954-29.2023498-89.19167311-160.49973666 52.74532951 29.2023498 89.19167314z m117.71489856-112.28190322l16.75173553 50.93433109-118.39402291 38.93646644-16.75173559-50.93433107 118.39402297-38.93646646z" fill="#D63737" p-id="8558"></path><path d="M703.48139243 344.67279927l-29.32006473-89.2573218 7.52696224-2.47201287 29.32006472 89.25958553zM663.10970969 293.32193855l-118.29215422 38.85723522-1.62537109-4.94855321 118.29215425-38.85723526z" fill="#722222" p-id="8559"></path><path d="M661.61337226 288.26698917l-118.50721033 38.92967515-1.62537111-4.94628946 118.50721035-38.92967518z" fill="#E86767" p-id="8560"></path><path d="M558.95918951 374.98891314l-14.41328383-43.8759647 4.94628949-1.6253711 14.41328383 43.87596469z" fill="#722222" p-id="8561"></path><path d="M710.98345344 342.21889637l-26.03310257 31.69247266 47.99145865 29.42872465-33.27709632 24.22210412 49.12333264 21.05285684-28.0704758 30.10784905 36.44634359 34.18259551-16.52536075 45.95408538 32.37159711 26.25947736-15.84623636 37.12546802 28.07047581 28.07047578L772.33102559 693.09984388l31.91884743 24.90122852-24.67485372 46.18046021-94.62466843 31.23972304-131.7501364-401.58890379z" fill="#42362A" p-id="8562"></path><path d="M707.13508178 343.35077039l-32.3715971 34.18259554 47.99145862 29.4287246-33.27709631 24.22210413 49.12333263 20.82648207-28.07047578 30.10784904 36.44634358 34.40897031-16.52536079 45.95408541 32.37159714 26.25947735-15.84623635 36.89909316 28.07047582 28.07047584-12.9033639 42.78483809 31.91884749 25.12760333-24.67485374 46.1804602-94.39829364 31.01334828-131.97651122-401.36252896z" fill="#DBB383" p-id="8563"></path><path d="M46.57340125 466.95141384h707.87401473v425.81100787H46.57340125z" fill="#EEC887" p-id="8564"></path><path d="M754.67379079 466.95141384h182.45809268v425.81100787h-182.45809268z" fill="#68553A" p-id="8565"></path><path d="M497.2856377 692.42071946c0.4527496-4.0747465 0.9054992-8.37586778 0.90549918-12.67698908 0-4.30112129-0.4527496-8.60224259-0.90549918-12.67698907l27.61772616-21.50560644c2.49012287-2.03737325 3.16924728-5.4329953 1.58462364-8.37586783l-26.03310254-45.04858614c-1.58462365-2.71649765-4.98024569-4.0747465-7.92311817-2.71649764l-32.37159711 13.12973866c-6.79124416-5.20662054-14.0352379-9.50774183-21.95835605-12.90336388l-4.98024572-34.63534511c-0.67912443-3.16924728-3.16924728-5.4329953-6.56486932-5.43299532h-52.06620514c-3.16924728 0-5.8857449 2.49012287-6.33849451 5.43299532l-4.98024573 34.63534511c-7.92311818 3.39562207-15.39348674 7.69674339-21.95835609 12.90336388l-32.37159705-13.12973866c-2.94287246-1.13187404-6.33849453 0-7.92311817 2.71649764l-26.03310255 45.04858614c-1.58462365 2.71649765-0.9054992 6.33849453 1.58462362 8.37586783l27.39135137 21.50560644c-0.4527496 4.0747465-0.9054992 8.37586778-0.90549921 12.67698907 0 4.30112129 0.4527496 8.60224259 0.90549921 12.67698908l-27.39135137 21.50560646c-2.49012287 2.03737325-3.16924728 5.4329953-1.58462362 8.37586776l26.03310255 45.04858616c1.58462365 2.71649765 4.98024569 4.0747465 7.92311817 2.71649767l32.37159705-13.12973868c6.79124416 5.20662054 14.0352379 9.50774183 21.95835609 12.90336387l4.98024573 34.63534516c0.4527496 3.16924728 3.16924728 5.4329953 6.33849451 5.43299528h52.06620514c3.16924728 0 5.8857449-2.49012287 6.33849448-5.43299528l4.98024576-34.63534516c7.92311818-3.39562207 15.39348674-7.69674339 21.95835607-12.90336387l32.37159706 13.12973868c2.94287246 1.13187404 6.33849453 0 7.92311815-2.71649767l26.03310259-45.04858616c1.58462365-2.71649765 0.9054992-6.33849453-1.58462364-8.37586776l-27.39135136-21.50560646z m-96.66204168 33.0507215c-25.12760334 0-45.50133575-20.37373244-45.50133575-45.50133577 0-25.12760334 20.37373244-45.50133575 45.50133575-45.50133578 25.12760334 0 45.50133575 20.37373244 45.50133577 45.50133578 0 25.12760334-20.37373244 45.50133575-45.50133577 45.50133577z m0 0" fill="#C63232" p-id="8566"></path><path d="M400.62359602 746.97704742c-37.12546797 0-67.23331705-30.10784906-67.23331704-67.23331704s30.10784906-67.23331705 67.23331704-67.23331703 67.23331705 30.10784906 67.23331704 67.23331703-30.10784906 67.23331705-67.23331704 67.23331704z m0-111.60277878c-24.44847891 0-44.59583655 19.92098284-44.59583655 44.59583655 0 24.44847891 19.92098284 44.59583655 44.59583655 44.59583655s44.59583655-19.92098284 44.59583654-44.59583655c0-24.67485376-20.14735762-44.59583655-44.59583654-44.59583655z" fill="#722222" p-id="8567"></path></svg>