<?xml version="1.0" standalone="no"?><!DOCTYPE svg PUBLIC "-//W3C//DTD SVG 1.1//EN" "http://www.w3.org/Graphics/SVG/1.1/DTD/svg11.dtd"><svg t="1667310176079" class="icon" viewBox="0 0 1024 1024" version="1.1" xmlns="http://www.w3.org/2000/svg" p-id="2983" xmlns:xlink="http://www.w3.org/1999/xlink" width="200" height="200"><path d="M704 96h128v672h-128z" fill="#434A54" p-id="2984"></path><path d="M576 512c-141.376 0-256 114.594-256 256 0 141.376 114.624 256 256 256s256-114.624 256-256c0-141.406-114.624-256-256-256z m0 384c-70.594 0-128-57.438-128-128 0-70.594 57.406-128 128-128s128 57.406 128 128c0 70.562-57.406 128-128 128z" fill="#656D78" p-id="2985"></path><path d="M170.656 42.656c-11.782 0-21.312 9.532-21.312 21.344 0 11.75 9.532 21.312 21.312 21.312h83.062V42.656H170.656zM149.344 149.376c0 11.75 9.532 21.312 21.312 21.312h83.062V128.032H170.656c-11.78 0-21.312 9.53-21.312 21.344z" fill="#E6E9ED" p-id="2986"></path><path d="M320 96h128v672h-128z" fill="#656D78" p-id="2987"></path><path d="M874.656 256L832 298.656h-128L661.344 256V0.062h213.312z" fill="#5D9CEC" p-id="2988"></path><path d="M725.344 21.406c11.782 0 21.312-9.562 21.312-21.344H704c0 11.782 9.562 21.344 21.344 21.344zM810.656 21.406C822.438 21.406 832 11.844 832 0.062h-42.656c0 11.782 9.532 21.344 21.312 21.344z" fill="#4A89DC" p-id="2989"></path><path d="M426.656 341.312c0 11.782 9.562 21.344 21.344 21.344V320c-11.782 0-21.344 9.532-21.344 21.312zM341.344 341.312c0-11.782-9.562-21.312-21.344-21.312v42.656c11.782 0 21.344-9.562 21.344-21.344zM810.656 341.312c0 11.782 9.562 21.344 21.344 21.344V320c-11.782 0-21.344 9.532-21.344 21.312zM725.344 341.312c0-11.782-9.562-21.312-21.344-21.312v42.656c11.782 0 21.344-9.562 21.344-21.344z" opacity=".2" p-id="2990"></path><path d="M768 85.312c-11.782 0-21.344 9.562-21.344 21.344v191.906h42.688V106.656c0-11.78-9.562-21.344-21.344-21.344zM298.656 85.312h170.688v213.25h-170.688z" fill="#4A89DC" p-id="2991"></path><path d="M469.344 192c0 11.75-9.562 21.312-21.344 21.312h-192c-11.782 0-21.344-9.562-21.344-21.312V21.312C234.656 9.532 244.218 0 256 0h192c11.782 0 21.344 9.532 21.344 21.312V192z" fill="#5D9CEC" p-id="2992"></path><path d="M490.656 672.656v-146.094A255.434 255.434 0 0 0 448 546.25V768c0-37.844 16.5-71.876 42.656-95.344z" fill="#434A54" p-id="2993"></path></svg>