<svg width="247" height="319" viewBox="0 0 247 319" fill="none" xmlns="http://www.w3.org/2000/svg">
<g clip-path="url(#clip0_7_58)">
<path d="M123.886 174.137C122.337 175.345 120.903 176.695 119.603 178.168C120.903 176.695 122.337 175.345 123.886 174.137V174.137ZM113.758 212.659C123.018 212.659 123.018 201.76 132.277 201.76C132.872 201.766 133.466 201.824 134.052 201.934C129.461 192.134 124.58 183.782 119.565 178.207C113.913 184.515 108.415 194.372 103.303 205.85C106.081 208.936 108.338 212.659 113.758 212.659Z" fill="#C9FBF2"/>
<path d="M145.491 285.402C127.551 285.402 124.272 274.908 124.272 274.908H79.9043C75.5641 290.803 73.037 302.03 73.037 302.03H166.112C166.112 302.03 164.646 295.529 162.042 285.402H145.491Z" fill="#6ADDD6"/>
<path d="M145.491 285.402H162.042C156.891 265.495 147.343 231.621 135.846 205.85C135.267 204.519 134.65 203.207 134.052 201.992C133.466 201.882 132.872 201.824 132.277 201.818C123.018 201.818 123.018 212.717 113.758 212.717C108.338 212.717 106.042 208.994 103.303 205.907C93.6582 227.57 85.3441 254.962 79.9043 274.966H124.272C124.272 274.966 127.551 285.402 145.491 285.402V285.402Z" fill="#6ADDD6"/>
<path d="M150.796 212.659C156.216 212.659 158.512 208.936 161.251 205.85C152.358 185.904 142.327 170.722 132.277 170.722C131.689 170.727 131.102 170.778 130.522 170.877L129.904 171.031C129.53 171.104 129.162 171.207 128.805 171.34C128.535 171.34 128.265 171.532 128.014 171.629L127.088 172.034L126.201 172.516C125.931 172.651 125.68 172.825 125.429 172.979C125.083 173.186 124.748 173.412 124.426 173.654L123.886 174.059C122.337 175.268 120.903 176.618 119.603 178.091C124.619 183.666 129.499 192.019 134.09 201.818C141.575 203.226 142.173 212.659 150.796 212.659V212.659Z" fill="#A9ECEB"/>
<path d="M162.042 285.402C164.646 295.529 166.112 302.03 166.112 302.03H191.517C191.517 302.03 190.051 295.529 187.427 285.402H162.042ZM150.796 212.659C142.173 212.659 141.575 203.226 134.052 201.934C134.65 203.207 135.267 204.519 135.846 205.792C147.42 231.563 156.891 265.437 162.042 285.344H187.427C182.296 265.495 172.748 231.621 161.251 205.85C158.473 208.936 156.216 212.659 150.796 212.659V212.659Z" fill="#00B2A7"/>
<path d="M77.9174 219.102L78.7083 218.948L77.9174 219.102ZM76.027 219.893L76.895 219.507L76.027 219.893ZM73.0949 221.648C73.8162 221.153 74.5631 220.695 75.3325 220.279C74.5631 220.695 73.8162 221.153 73.0949 221.648V221.648ZM71.3974 222.941L72.7284 221.899L71.3974 222.941ZM79.885 218.562C80.1016 218.512 80.3205 218.474 80.5409 218.446C80.3205 218.474 80.1016 218.512 79.885 218.562V218.562ZM63.8356 258.666C73.0949 258.666 73.0949 247.786 82.3542 247.786C83.9512 247.761 85.5272 248.153 86.9259 248.924C81.679 239.029 75.7955 230.059 69.6613 224.426C63.2569 230.213 57.142 239.858 51.7214 250.217C55.3673 253.419 57.3927 258.666 63.8356 258.666V258.666Z" fill="#C9FBF2"/>
<path d="M86.9259 248.924C85.5239 248.19 83.9554 247.831 82.3734 247.883C73.1142 247.883 73.1142 258.762 63.8549 258.762C57.412 258.762 55.4444 253.515 51.7407 250.313C43.3916 267.01 36.3614 284.334 30.7145 302.127H108.647C102.993 284.299 95.9629 266.937 87.6203 250.198L86.9259 248.924ZM72.7284 221.899L73.0949 221.648L72.7284 221.899ZM71.0887 223.191L71.3973 222.941L71.0887 223.191ZM78.7083 218.948C79.0941 218.832 79.4992 218.735 79.885 218.658C79.4992 218.639 79.0941 218.735 78.7083 218.948ZM76.895 219.507L77.9174 219.102L76.895 219.507ZM75.3325 220.279L76.027 219.893L75.3325 220.279ZM80.5409 218.446C81.1784 218.341 81.8237 218.289 82.4699 218.292C81.8237 218.289 81.1784 218.341 80.5409 218.446V218.446Z" fill="#00C4B8"/>
<path d="M86.9259 248.924C92.0185 251.741 93.4653 258.666 100.892 258.666C107.335 258.666 109.302 253.419 113.025 250.198C104.075 233.068 93.2338 218.292 82.3735 218.292C81.7273 218.289 81.082 218.341 80.4444 218.446C80.224 218.474 80.0051 218.512 79.7886 218.562C79.4028 218.562 78.9977 218.735 78.6119 218.851L77.821 219.102L76.7986 219.507L75.9306 219.893L75.2361 220.279C74.4667 220.695 73.7197 221.153 72.9985 221.648L72.6319 221.899L71.3009 222.941L70.9923 223.191C70.51 223.577 70.0471 223.982 69.5648 224.426C75.7955 230.059 81.679 239.029 86.9259 248.924V248.924Z" fill="#A9ECEB"/>
<path d="M113.025 250.198C109.302 253.419 107.238 258.666 100.892 258.666C93.4653 258.666 91.9799 251.702 86.9259 248.924L87.6203 250.198C95.9583 266.906 102.988 284.235 108.647 302.03H134.052C128.403 284.232 121.373 266.901 113.025 250.198V250.198Z" fill="#00A298"/>
<path d="M198.114 305.483C198.109 306.401 197.741 307.279 197.09 307.926C196.44 308.573 195.56 308.936 194.642 308.936H27.5895C27.1361 308.936 26.6871 308.847 26.2681 308.673C25.8492 308.5 25.4686 308.245 25.1479 307.925C24.8273 307.604 24.573 307.223 24.3994 306.804C24.2259 306.385 24.1366 305.936 24.1366 305.483C24.1366 305.03 24.2259 304.581 24.3994 304.162C24.573 303.743 24.8273 303.362 25.1479 303.041C25.4686 302.721 25.8492 302.466 26.2681 302.293C26.6871 302.119 27.1361 302.03 27.5895 302.03H194.603C195.061 302.025 195.515 302.11 195.94 302.281C196.364 302.452 196.751 302.706 197.077 303.027C197.403 303.347 197.663 303.73 197.841 304.151C198.019 304.573 198.112 305.025 198.114 305.483Z" fill="#6ADDD6"/>
<path d="M95.8766 195.144C95.8769 195.896 95.7262 196.64 95.4333 197.333C95.1404 198.025 94.7113 198.652 94.1715 199.175C93.6317 199.699 92.9923 200.109 92.291 200.381C91.5898 200.652 90.8412 200.78 90.0895 200.757H59.9198C59.1826 200.757 58.4526 200.612 57.7716 200.33C57.0905 200.048 56.4717 199.634 55.9505 199.113C55.4292 198.592 55.0157 197.973 54.7336 197.292C54.4515 196.611 54.3063 195.881 54.3063 195.144C54.3063 193.655 54.8977 192.227 55.9505 191.174C57.0032 190.122 58.431 189.53 59.9198 189.53H90.0895C90.8412 189.507 91.5898 189.635 92.291 189.907C92.9923 190.178 93.6317 190.588 94.1715 191.112C94.7113 191.635 95.1404 192.262 95.4333 192.954C95.7262 193.647 95.8769 194.392 95.8766 195.144V195.144Z" fill="#C9FBF2"/>
<path d="M86.2315 200.757C86.2315 202.251 85.6381 203.684 84.5817 204.74C83.5254 205.796 82.0927 206.39 80.5988 206.39H50.3133C49.5745 206.39 48.843 206.244 48.1607 205.961C47.4783 205.677 46.8587 205.262 46.3372 204.739C45.8157 204.215 45.4026 203.594 45.1216 202.911C44.8406 202.228 44.6973 201.496 44.6999 200.757C44.6999 199.268 45.2913 197.84 46.344 196.788C47.3967 195.735 48.8245 195.144 50.3133 195.144H80.5602C81.3015 195.138 82.0366 195.28 82.7231 195.559C83.4097 195.839 84.0344 196.251 84.5613 196.773C85.0882 197.294 85.5069 197.915 85.7935 198.598C86.0801 199.282 86.229 200.016 86.2315 200.757V200.757ZM195.761 243.832C195.761 244.495 195.63 245.153 195.376 245.766C195.122 246.379 194.75 246.936 194.281 247.405C193.811 247.875 193.254 248.247 192.641 248.501C192.028 248.755 191.371 248.886 190.707 248.886H163.508C162.844 248.886 162.187 248.755 161.574 248.501C160.96 248.247 160.403 247.875 159.934 247.405C159.465 246.936 159.092 246.379 158.838 245.766C158.584 245.153 158.454 244.495 158.454 243.832C158.459 242.493 158.993 241.21 159.94 240.264C160.886 239.317 162.169 238.783 163.508 238.778H190.707C192.046 238.783 193.328 239.317 194.275 240.264C195.222 241.21 195.756 242.493 195.761 243.832V243.832Z" fill="#C9FBF2"/>
<path d="M179.827 238.508C179.827 239.848 179.295 241.134 178.347 242.081C177.399 243.029 176.114 243.562 174.773 243.562H170.549C169.208 243.562 167.923 243.029 166.975 242.081C166.027 241.134 165.495 239.848 165.495 238.508C165.495 237.167 166.027 235.882 166.975 234.934C167.923 233.986 169.208 233.454 170.549 233.454H174.773C176.114 233.454 177.399 233.986 178.347 234.934C179.295 235.882 179.827 237.167 179.827 238.508ZM83.743 189.53C83.743 190.194 83.6123 190.851 83.3583 191.464C83.1043 192.077 82.7321 192.635 82.2627 193.104C81.7934 193.573 81.2363 193.945 80.6231 194.199C80.0099 194.453 79.3527 194.584 78.689 194.584H74.4645C73.1223 194.584 71.8348 194.052 70.8839 193.105C69.933 192.158 69.3963 190.872 69.3912 189.53C69.3912 188.865 69.5225 188.206 69.7777 187.592C70.0329 186.977 70.4069 186.419 70.8783 185.95C71.3496 185.48 71.9091 185.108 72.5245 184.855C73.1399 184.602 73.7992 184.474 74.4645 184.476H78.689C80.0294 184.476 81.3149 185.009 82.2627 185.956C83.2106 186.904 83.743 188.19 83.743 189.53V189.53Z" fill="#C9FBF2"/>
<g clip-path="url(#clip1_7_58)">
<path d="M164.895 98.532C163.034 77.056 144.944 60.145 122.964 60.145C100.987 60.145 82.9 77.051 81.033 98.522C62.25 98.63 47 113.924 47 132.715C47 151.572 62.357 166.915 81.232 166.915H164.282C183.158 166.915 198.515 151.573 198.515 132.715C198.515 114.062 183.489 98.861 164.895 98.532ZM164.282 158.372H81.232C67.073 158.372 55.553 146.862 55.553 132.714C55.553 118.568 67.072 107.058 81.232 107.058H84.538C85.874 107.058 87.052 106.434 87.837 105.475C88.794 104.692 89.418 103.517 89.418 102.185C89.418 83.713 104.467 68.686 122.964 68.686C141.462 68.686 156.51 83.713 156.51 102.185C156.51 102.288 156.533 102.385 156.54 102.486C156.533 102.587 156.51 102.684 156.51 102.787C156.51 103.348 156.621 103.904 156.836 104.422C157.052 104.941 157.367 105.412 157.764 105.808C158.161 106.205 158.632 106.519 159.151 106.734C159.67 106.948 160.226 107.058 160.787 107.058H164.282C178.442 107.058 189.961 118.568 189.961 132.714C189.962 146.862 178.442 158.372 164.282 158.372V158.372ZM213.38 68.304C211.519 46.828 193.429 29.917 171.449 29.917C157.911 29.917 145.112 36.485 137.214 47.486C136.887 47.9419 136.653 48.4578 136.525 49.0042C136.397 49.5506 136.379 50.1169 136.47 50.6705C136.562 51.2241 136.761 51.7543 137.058 52.2308C137.354 52.7072 137.742 53.1205 138.198 53.447C139.12 54.1067 140.266 54.3737 141.385 54.1894C142.504 54.0051 143.504 53.3846 144.166 52.464C150.462 43.693 160.661 38.458 171.45 38.458C189.948 38.458 204.996 53.485 204.996 71.957C204.996 72.06 205.019 72.157 205.026 72.258C205.019 72.359 204.996 72.456 204.996 72.559C204.996 73.1203 205.107 73.6761 205.322 74.1945C205.537 74.713 205.852 75.184 206.25 75.5806C206.647 75.9772 207.118 76.2917 207.637 76.5061C208.156 76.7204 208.712 76.8305 209.273 76.83H212.768C226.928 76.83 238.447 88.34 238.447 102.486C238.447 116.634 226.928 128.143 212.768 128.143C210.406 128.143 208.491 130.055 208.491 132.414C208.491 134.773 210.406 136.685 212.768 136.685C231.644 136.685 247.001 121.343 247.001 102.486C247 83.834 231.973 68.633 213.38 68.304V68.304ZM78.47 189.965C79.829 187.452 79.676 179.523 79.547 176.231C79.511 175.318 78.424 174.721 77.624 175.193C74.796 176.893 68.074 181.117 66.717 183.63C66.298 184.399 66.036 185.245 65.9464 186.116C65.8568 186.988 65.9413 187.868 66.195 188.707C66.4436 189.547 66.8567 190.33 67.4104 191.009C67.964 191.688 68.6471 192.251 69.42 192.664C70.3935 193.189 71.4819 193.465 72.588 193.466C73.7932 193.468 74.9765 193.144 76.0121 192.527C77.0477 191.911 77.8971 191.025 78.47 189.965V189.965ZM59.519 199.81C56.695 201.505 49.976 205.723 48.611 208.245C46.863 211.48 48.076 215.534 51.315 217.283C52.0865 217.7 52.9325 217.961 53.8049 218.051C54.6772 218.141 55.5587 218.058 56.3991 217.807C57.2394 217.556 58.0221 217.142 58.7024 216.589C59.3827 216.036 59.9473 215.354 60.364 214.582C61.723 212.07 61.57 204.14 61.441 200.847C61.405 199.931 60.305 199.338 59.519 199.81V199.81ZM151.46 189.448C152.819 186.935 152.666 179.006 152.538 175.714C152.501 174.798 151.4 174.206 150.616 174.678C147.79 176.375 141.071 180.592 139.708 183.113C137.959 186.348 139.172 190.402 142.412 192.15C143.183 192.567 144.03 192.828 144.902 192.918C145.774 193.008 146.656 192.925 147.496 192.674C148.336 192.423 149.119 192.009 149.799 191.455C150.479 190.902 151.044 190.22 151.46 189.448V189.448ZM132.509 199.293C129.682 200.993 122.961 205.214 121.601 207.728C119.853 210.963 121.065 215.017 124.306 216.765C125.077 217.182 125.923 217.443 126.796 217.533C127.668 217.622 128.549 217.54 129.39 217.289C130.23 217.038 131.012 216.624 131.693 216.071C132.373 215.517 132.937 214.836 133.354 214.064C134.715 211.546 134.561 203.618 134.432 200.33C134.397 199.417 133.296 198.821 132.509 199.293V199.293ZM101.69 189.448C103.049 186.935 102.896 179.006 102.768 175.714C102.731 174.798 101.633 174.206 100.846 174.678C98.02 176.375 91.301 180.592 89.938 183.113C88.189 186.348 89.402 190.402 92.642 192.15C93.6151 192.674 94.7027 192.949 95.808 192.951C97.0134 192.953 98.1968 192.628 99.2325 192.011C100.268 191.395 101.117 190.509 101.69 189.448V189.448ZM82.74 199.293C79.913 200.993 73.192 205.214 71.832 207.728C70.084 210.963 71.297 215.017 74.537 216.765C75.3084 217.182 76.1544 217.443 77.0267 217.533C77.8989 217.622 78.7803 217.54 79.6205 217.289C80.4607 217.038 81.2433 216.624 81.9235 216.071C82.6038 215.517 83.1683 214.836 83.585 214.064C84.947 211.546 84.792 203.618 84.663 200.33C84.629 199.417 83.526 198.821 82.74 199.293ZM125.798 189.448C127.16 186.929 127.005 179.004 126.876 175.714C126.841 174.802 125.759 174.201 124.954 174.676C122.127 176.376 115.406 180.599 114.046 183.113C113.498 184.129 113.223 185.27 113.248 186.424C113.273 187.579 113.598 188.707 114.19 189.698C114.781 190.689 115.62 191.51 116.625 192.08C117.629 192.65 118.763 192.949 119.918 192.949C121.123 192.951 122.306 192.626 123.341 192.01C124.377 191.394 125.226 190.508 125.798 189.448V189.448ZM106.848 199.293C104.022 200.99 97.302 205.209 95.941 207.728C94.192 210.963 95.405 215.017 98.645 216.765C100.203 217.606 102.032 217.794 103.729 217.287C105.426 216.781 106.852 215.621 107.694 214.063C109.053 211.55 108.9 203.621 108.772 200.329C108.734 199.415 107.633 198.823 106.848 199.293V199.293ZM175.706 174.435C172.879 176.135 166.158 180.356 164.798 182.87C163.049 186.105 164.262 190.159 167.502 191.907C168.273 192.324 169.12 192.585 169.992 192.675C170.864 192.765 171.746 192.682 172.586 192.431C173.426 192.18 174.209 191.766 174.889 191.213C175.57 190.66 176.134 189.978 176.551 189.206C177.91 186.692 177.757 178.762 177.629 175.471C177.592 174.557 176.493 173.964 175.706 174.435V174.435ZM157.601 199.05C154.773 200.75 148.051 204.974 146.694 207.487C146.275 208.256 146.013 209.101 145.923 209.973C145.833 210.845 145.918 211.725 146.171 212.564C146.42 213.405 146.834 214.187 147.388 214.867C147.942 215.547 148.625 216.109 149.398 216.523C150.371 217.047 151.459 217.322 152.565 217.324C153.77 217.326 154.953 217.001 155.989 216.385C157.024 215.768 157.873 214.882 158.446 213.822C159.806 211.308 159.653 203.38 159.524 200.088C159.487 199.171 158.388 198.578 157.601 199.05Z" fill="#78C0F6"/>
</g>
</g>
<defs>
<clipPath id="clip0_7_58">
<rect width="247" height="319" fill="white"/>
</clipPath>
<clipPath id="clip1_7_58">
<rect width="200" height="200" fill="white" transform="translate(47 24)"/>
</clipPath>
</defs>
</svg>
