<?xml version="1.0" standalone="no"?><!DOCTYPE svg PUBLIC "-//W3C//DTD SVG 1.1//EN" "http://www.w3.org/Graphics/SVG/1.1/DTD/svg11.dtd"><svg t="1669450260724" class="icon" viewBox="0 0 1024 1024" version="1.1" xmlns="http://www.w3.org/2000/svg" p-id="7297" xmlns:xlink="http://www.w3.org/1999/xlink" width="200" height="200"><path d="M0 0h1024v1024H0z" fill="#FFFFFF" fill-opacity="0" p-id="7298"></path><path d="M568.888889 113.777778v56.888889a85.333333 85.333333 0 0 0 170.524444 5.006222L739.555556 170.666667V113.777778h56.888888a85.333333 85.333333 0 0 1 85.333334 85.333333v682.666667a85.333333 85.333333 0 0 1-85.333334 85.333333H227.555556a85.333333 85.333333 0 0 1-85.333334-85.333333V199.111111a85.333333 85.333333 0 0 1 85.333334-85.333333h56.888888v56.888889a85.333333 85.333333 0 0 0 80.327112 85.191111L369.777778 256a85.333333 85.333333 0 0 0 85.191111-80.327111L455.111111 170.666667V113.777778h113.777778z" fill="#48A8FF" p-id="7299"></path><path d="M341.333333 56.888889m28.444445 0l0 0q28.444444 0 28.444444 28.444444l0 85.333334q0 28.444444-28.444444 28.444444l0 0q-28.444444 0-28.444445-28.444444l0-85.333334q0-28.444444 28.444445-28.444444Z" fill="#48A8FF" p-id="7300"></path><path d="M625.777778 56.888889m28.444444 0l0 0q28.444444 0 28.444445 28.444444l0 85.333334q0 28.444444-28.444445 28.444444l0 0q-28.444444 0-28.444444-28.444444l0-85.333334q0-28.444444 28.444444-28.444444Z" fill="#48A8FF" p-id="7301"></path><path d="M369.777778 512a142.222222 142.222222 0 1 0 284.444444 0 142.222222 142.222222 0 0 0-284.444444 0z" fill="#FFFFFF" p-id="7302"></path><path d="M398.222222 739.555556m28.444445 0l170.666666 0q28.444444 0 28.444445 28.444444l0 0q0 28.444444-28.444445 28.444444l-170.666666 0q-28.444444 0-28.444445-28.444444l0 0q0-28.444444 28.444445-28.444444Z" fill="#FFFFFF" p-id="7303"></path><path d="M398.222222 483.555556m28.444445 0l170.666666 0q28.444444 0 28.444445 28.444444l0 0q0 28.444444-28.444445 28.444444l-170.666666 0q-28.444444 0-28.444445-28.444444l0 0q0-28.444444 28.444445-28.444444Z" fill="#48A8FF" p-id="7304"></path><path d="M540.444444 398.222222m0 28.444445l0 170.666666q0 28.444444-28.444444 28.444445l0 0q-28.444444 0-28.444444-28.444445l0-170.666666q0-28.444444 28.444444-28.444445l0 0q28.444444 0 28.444444 28.444445Z" fill="#48A8FF" p-id="7305"></path></svg>