<?xml version="1.0" standalone="no"?><!DOCTYPE svg PUBLIC "-//W3C//DTD SVG 1.1//EN" "http://www.w3.org/Graphics/SVG/1.1/DTD/svg11.dtd"><svg t="1665074672933" class="icon" viewBox="0 0 1024 1024" version="1.1" xmlns="http://www.w3.org/2000/svg" p-id="5691" xmlns:xlink="http://www.w3.org/1999/xlink" width="200" height="200"><path d="M512 928c229.76 0 416-186.24 416-416S741.76 96 512 96 96 282.24 96 512s186.24 416 416 416z m0-32C299.936 896 128 724.064 128 512S299.936 128 512 128s384 171.936 384 384-171.936 384-384 384z" fill="#F9EAC7" p-id="5692"></path><path d="M541.248 798.528a286.656 286.656 0 0 1-188.64-46.624l-96.096 154.464-49.024-41.152 134.656-120.64a289.28 289.28 0 0 1-87.52-103.168l-151.36 49.568-11.104-63.04 153.984-5.024A287.136 287.136 0 0 1 224 512c0-53.44 14.56-103.488 39.936-146.4L166.464 302.72l42.016-48.32 73.248 84.64a287.552 287.552 0 0 1 266.016-112.8l-15.808-147.264 63.968 2.24-26.56 148.512a288.32 288.32 0 0 1 226.336 232.32l187.2-68.608 13.312 62.592-199.296 13.472a290.336 290.336 0 0 1-7.68 120.768l174.624 5.696-11.104 63.04-167.744-54.944a288.416 288.416 0 0 1-222.112 191.488l53.504 138.4-62.368 14.4-12.8-149.76z m-171.744-73.824a254.816 254.816 0 0 0 169.024 41.92l-3.744-43.744 16.32 42.144a256.32 256.32 0 0 0 203.456-170.944l-16.864-5.504 18.464 0.576a256.096 256.096 0 0 0-192.448-327.936l-7.616 42.72-4.832-44.928a255.68 255.68 0 0 0-248.032 104.832l53.312 61.6L290.88 383.04A254.816 254.816 0 0 0 256 512c0 39.296 8.864 76.512 24.64 109.76l37.664-1.216-32.864 10.784a257.216 257.216 0 0 0 81.12 91.392l9.472-8.48-6.528 10.464z" fill="#EEAA5A" p-id="5693"></path><path d="M512 640a128 128 0 1 1 0-256 128 128 0 0 1 0 256zM32 448l288 32-288 32v-64z m355.584 524.672l56.96-284.128 6.784 289.696-63.744-5.568z m445.76-81.6l-184.96-223.04 229.44 176.96-44.48 46.08zM338.656 79.392l87.936 276.128-146.4-250.08 58.464-26.048zM876.48 208.8l-226.304 180.992 181.056-226.24 45.248 45.248z" fill="#EF633F" p-id="5694"></path></svg>