<?xml version="1.0" standalone="no"?><!DOCTYPE svg PUBLIC "-//W3C//DTD SVG 1.1//EN" "http://www.w3.org/Graphics/SVG/1.1/DTD/svg11.dtd"><svg t="1665194712193" class="icon" viewBox="0 0 1024 1024" version="1.1" xmlns="http://www.w3.org/2000/svg" p-id="4130" xmlns:xlink="http://www.w3.org/1999/xlink" width="200" height="200"><path d="M999.253484 0c-3.070736 0-6.322103 0.541895-9.57347 1.986947L15.353678 400.821309c-19.688834 8.128418-20.591992 35.584406-1.445052 45.157876l382.216264 170.696772c4.877051 2.34821 8.850944 6.322103 11.199153 11.199153L578.020815 1010.272006c4.515788 9.212207 13.366731 13.727994 22.217675 13.727994 9.392838 0 18.785676-5.238314 22.940201-15.353678L1022.013053 34.319986c7.044629-17.159993-6.141471-34.319986-22.759569-34.319986zM609.631328 859.083436c-4.154525 10.115364-18.424413 10.295996-22.940201 0.361263L473.254542 598.432175l-0.541894-1.264421-0.541895-1.26442c-9.392838-19.146939-24.927148-34.681249-44.254718-44.254719l-1.264421-0.541894-1.26442-0.541895-260.651262-113.255953c-9.934733-4.515788-9.754101-18.785676 0.361263-22.940201L895.751632 112.172164c10.115364-4.154525 20.41136 5.96084 16.256835 16.256836L609.631328 859.083436z" fill="#1296db" p-id="4131"></path><path d="M554.177456 514.98042c-11.560416 0-23.120833-4.335156-31.971776-13.1861-17.701887-17.701887-17.701887-46.241665 0-63.943553l100.973011-100.973011c17.701887-17.701887 46.241665-17.701887 63.943553 0 17.701887 17.701887 17.701887 46.241665 0 63.943553l-100.973011 100.973011c-8.850944 8.670312-20.41136 13.1861-31.971777 13.1861z" fill="#1296db" p-id="4132"></path></svg>