<?xml version="1.0" standalone="no"?><!DOCTYPE svg PUBLIC "-//W3C//DTD SVG 1.1//EN" "http://www.w3.org/Graphics/SVG/1.1/DTD/svg11.dtd"><svg t="1664186353841" class="icon" viewBox="0 0 1024 1024" version="1.1" xmlns="http://www.w3.org/2000/svg" p-id="2967" xmlns:xlink="http://www.w3.org/1999/xlink" width="200" height="200"><path d="M812.6 611.3c-24.7 0-47.6 6.9-67.4 18.7-66.5-74.7-66.2-187.7 0.8-262.1 19.5 11.5 42.2 18.2 66.5 18.2 72.5 0 131.4-58.8 131.4-131.4 0-72.5-58.8-131.4-131.4-131.4-72.5 0-131.4 58.8-131.4 131.4 0 25.9 7.6 49.9 20.5 70.2-75.5 67.3-190.1 66.4-264.5-2.7 11.9-19.8 18.8-42.8 18.8-67.5 0-72.5-58.8-131.4-131.4-131.4-72.5 0-131.4 58.8-131.4 131.4 0 72.5 58.8 131.4 131.4 131.4 25.6 0 49.3-7.4 69.5-20 69.2 75 69.5 190.4 0.8 265.8-20.3-12.9-44.4-20.5-70.3-20.5-72.5 0-131.4 58.8-131.4 131.4 0 72.5 58.8 131.4 131.4 131.4 72.5 0 131.4-58.8 131.4-131.4 0-24.4-6.7-47.1-18.3-66.6 74.3-68.4 188.1-69.3 263.4-2.7-12.6 20.1-19.9 43.8-19.9 69.3 0 72.5 58.8 131.4 131.4 131.4 72.5 0 131.4-58.8 131.4-131.4 0.1-72.7-58.7-131.5-131.3-131.5z" fill="#4DBBF7" p-id="2968"></path><path d="M763.2 189.2l-90.5 90.5c-76.9 76.9-201.6 76.9-278.5 0l-90.5-90.5c-11.8-11.8-31-11.8-42.8 0-11.8 11.8-11.8 31 0 42.8l90.5 90.5c76.9 76.9 76.9 201.6 0 278.5l-90.5 90.5c-11.8 11.8-11.8 31 0 42.8 11.8 11.8 31 11.8 42.8 0l90.5-90.5c76.9-76.9 201.6-76.9 278.5 0l90.5 90.5c11.8 11.8 31 11.8 42.8 0 11.8-11.8 11.8-31 0-42.8L715.5 601c-76.9-76.9-76.9-201.6 0-278.5L806 232c11.8-11.8 11.8-31 0-42.8-11.8-11.8-30.9-11.8-42.8 0z" fill="" p-id="2969"></path><path d="M533.5 461.8m-75.1 0a75.1 75.1 0 1 0 150.2 0 75.1 75.1 0 1 0-150.2 0Z" fill="#4DBBF7" p-id="2970"></path><path d="M533.5 461.8m-37.5 0a37.5 37.5 0 1 0 75 0 37.5 37.5 0 1 0-75 0Z" fill="" p-id="2971"></path><path d="M327.7 312.2c-12.4 5.3-26.1 8.2-40.4 8.2-57 0-103.2-46.2-103.2-103.2S230.3 114 287.3 114s103.2 46.2 103.2 103.2c0 13.4-2.6 26.2-7.3 37.9l21.2 21.2c9-17.8 14.2-37.9 14.2-59.2 0-72.5-58.8-131.4-131.4-131.4s-131.4 58.8-131.4 131.4c0 72.5 58.8 131.4 131.4 131.4 22.2 0 43.1-5.6 61.5-15.3l-21-21zM734.7 312.2c12.4 5.3 26.1 8.2 40.4 8.2 57 0 103.2-46.2 103.2-103.2S832.1 114 775.1 114s-103.2 46.2-103.2 103.2c0 13.4 2.6 26.2 7.3 37.9L658 276.4c-9-17.8-14.2-37.9-14.2-59.2 0-72.5 58.8-131.4 131.4-131.4s131.4 58.8 131.4 131.4c0 72.5-58.8 131.4-131.4 131.4-22.2 0-43.1-5.6-61.5-15.3l21-21.1zM327.7 610.1c-12.4-5.3-26.1-8.2-40.4-8.2-57 0-103.2 46.2-103.2 103.2s46.2 103.2 103.2 103.2 103.2-46.2 103.2-103.2c0-13.4-2.6-26.2-7.3-37.9l21.2-21.2c9 17.8 14.2 37.9 14.2 59.2 0 72.5-58.8 131.4-131.4 131.4s-131.4-58.8-131.4-131.4c0-72.5 58.8-131.4 131.4-131.4 22.2 0 43.1 5.6 61.5 15.3l-21 21zM734.7 610.1c12.4-5.3 26.1-8.2 40.4-8.2 57 0 103.2 46.2 103.2 103.2s-46.2 103.2-103.2 103.2-103.2-46.2-103.2-103.2c0-13.4 2.6-26.2 7.3-37.9L658 645.9c-9 17.8-14.2 37.9-14.2 59.2 0 72.5 58.8 131.4 131.4 131.4s131.4-58.8 131.4-131.4c0-72.5-58.8-131.4-131.4-131.4-22.2 0-43.1 5.6-61.5 15.3l21 21.1z" fill="" p-id="2972"></path></svg>