<?xml version="1.0" standalone="no"?><!DOCTYPE svg PUBLIC "-//W3C//DTD SVG 1.1//EN" "http://www.w3.org/Graphics/SVG/1.1/DTD/svg11.dtd"><svg t="1665074613733" class="icon" viewBox="0 0 1024 1024" version="1.1" xmlns="http://www.w3.org/2000/svg" p-id="4132" xmlns:xlink="http://www.w3.org/1999/xlink" width="200" height="200"><path d="M512 512m-414 0a414 414 0 1 0 828 0 414 414 0 1 0-828 0Z" fill="#F0C48A" p-id="4133"></path><path d="M205.2 303H11.8c-6.4 0-11.8-5.2-11.8-11.8s5.2-11.8 11.8-11.8h193.4c6.4 0 11.8 5.2 11.8 11.8s-5.4 11.8-11.8 11.8zM1012.2 303h-193.4c-6.4 0-11.8-5.2-11.8-11.8s5.2-11.8 11.8-11.8h193.4c6.4 0 11.8 5.2 11.8 11.8s-5.2 11.8-11.8 11.8z" fill="#4C4372" p-id="4134"></path><path d="M565 769.4h-105.8c-19.8 0-36-16.2-36-36v-32c0-19.8 16.2-36 36-36h105.8c19.8 0 36 16.2 36 36v32c0 19.8-16.2 36-36 36z" fill="#FD919E" p-id="4135"></path><path d="M565.2 769.2c18.2-0.2 33.2-13.8 35.4-31.4v-41.2c-2.2-17.6-17.2-31.2-35.4-31.4v104z" fill="#E8677D" p-id="4136"></path><path d="M494.2 594h35.6v71.2h-35.6z" fill="#FFFFFF" p-id="4137"></path><path d="M512 594h18.2v73.4H512zM566.4 558h-108.8c-28.4 0-51.2-23-51.2-51.2v-195.2c0-28.4 23-51.2 51.2-51.2h108.8c28.4 0 51.2 23 51.2 51.2v195.2c0 28.2-22.8 51.2-51.2 51.2z" fill="#D3E6F8" p-id="4138"></path><path d="M617.6 509.6V308.6c-1.2-21.2-15.2-39-34.4-45.6h-18.8V558h2.2c27.2 0 49.4-21.4 51-48.4z" fill="#A4CFF2" p-id="4139"></path><path d="M457.6 260.2h108.8v121.2c0 19.8-16.2 36-36 36h-36.8c-19.8 0-36-16.2-36-36v-121.2z" fill="#FD919E" p-id="4140"></path><path d="M493.6 417.4h0.2v-154.4h-36.2v118.4c0 19.8 16.2 36 36 36z" fill="#E8677D" p-id="4141"></path><path d="M106.6 254.6c14.4 0 26 11.6 26 26v48.2h-52v-48.2c0-14.2 11.8-26 26-26z" fill="#A4CFF2" p-id="4142"></path><path d="M117 325.8h16v-45c0-10-5.6-18.8-14-23h-2v68z" fill="#7BABF1" p-id="4143"></path><path d="M132.8 340.6H80.6c-6.4 0-11.8-5.2-11.8-11.8v-48.2c0-20.8 17-37.8 37.8-37.8 20.8 0 37.8 17 37.8 37.8v48.2c0 6.6-5.2 11.8-11.6 11.8z m-40.4-23.4h28.6v-36.4c0-7.8-6.4-14.4-14.4-14.4s-14.4 6.4-14.4 14.4v36.4z" fill="#4C4372" p-id="4144"></path><path d="M917.4 254.6c-14.4 0-26 11.6-26 26v48.2h52.2v-48.2c-0.2-14.2-12-26-26.2-26z" fill="#A4CFF2" p-id="4145"></path><path d="M927.4 325.8h16v-45c0-10-5.6-18.8-14-23h-2v68z" fill="#7BABF1" p-id="4146"></path><path d="M917.4 466c-26 0-47-21-47-47v-90.2h94v90.2c0 26-21.2 47-47 47zM106.6 466c26 0 47-21 47-47v-90.2h-94v90.2c0 26 21.2 47 47 47z" fill="#D3E6F8" p-id="4147"></path><path d="M150.4 328.8H115v133.4h10c11.6-5 20.8-14.4 25.4-26.2v-107.2zM961 328.8h-35.4v133.4h10c11.6-5 20.8-14.4 25.4-26.2v-107.2z" fill="#A4CFF2" p-id="4148"></path><path d="M106.6 466c-6.4 0-12.6-1.4-18.4-3.6v74.6c0 10.2 8.2 18.4 18.4 18.4s18.4-8.2 18.4-18.4v-74.6c-5.6 2.2-11.8 3.6-18.4 3.6zM917.4 466c6.4 0 12.6-1.4 18.4-3.6v74.6c0 10.2-8.2 18.4-18.4 18.4s-18.4-8.2-18.4-18.4v-74.6c5.6 2.2 11.8 3.6 18.4 3.6z" fill="#7BABF1" p-id="4149"></path><path d="M444.415886 500.18612a18.6 18.6 0 1 0 30.812942-20.842328 18.6 18.6 0 1 0-30.812942 20.842328Z" fill="#FFFFFF" p-id="4150"></path><path d="M560.268092 507.964887a18.6 18.6 0 1 0 8.068667-36.314413 18.6 18.6 0 1 0-8.068667 36.314413Z" fill="#FFFFFF" p-id="4151"></path><path d="M512 717.2m-29.8 0a29.8 29.8 0 1 0 59.6 0 29.8 29.8 0 1 0-59.6 0Z" fill="#E8677D" p-id="4152"></path><path d="M467.6 558h88.8v36h-88.8z" fill="#7BABF1" p-id="4153"></path><path d="M153.8 360.2h252.6v71.4H153.8zM870.35 431.65h-252.6v-71.4h252.6z" fill="#A4CFF2" p-id="4154"></path><path d="M566.4 569.8h-108.8c-34.8 0-63-28.2-63-63v-195.2c0-34.8 28.2-63 63-63h108.8c34.8 0 63 28.2 63 63v195.2c0 34.6-28.2 63-63 63zM457.6 272c-21.8 0-39.6 17.8-39.6 39.6v195.2c0 21.8 17.8 39.6 39.6 39.6h108.8c21.8 0 39.6-17.8 39.6-39.6v-195.2c0-21.8-17.8-39.6-39.6-39.6h-108.8z" fill="#4C4372" p-id="4155"></path><path d="M406.4 443.4H153.8c-6.4 0-11.8-5.2-11.8-11.8v-71.4c0-6.4 5.2-11.8 11.8-11.8h252.6c6.4 0 11.8 5.2 11.8 11.8v71.4c-0.2 6.6-5.4 11.8-11.8 11.8zM165.4 420h229.2v-48H165.4v48z" fill="#4C4372" p-id="4156"></path><path d="M406.4 409.2H153.8c-6.4 0-11.8-5.2-11.8-11.8s5.2-11.8 11.8-11.8h252.6c6.4 0 11.8 5.2 11.8 11.8s-5.4 11.8-11.8 11.8zM530.4 429.2h-36.8c-26.4 0-47.8-21.4-47.8-47.8v-121.2c0-6.4 5.2-11.8 11.8-11.8h108.8c6.4 0 11.8 5.2 11.8 11.8v121.2c0 26.4-21.6 47.8-47.8 47.8zM469.4 272v109.4c0 13.4 11 24.4 24.4 24.4h36.8c13.4 0 24.4-11 24.4-24.4V272h-85.6zM106.6 567c-16.6 0-30-13.4-30-30v-74.6c0-4 2-7.6 5.2-9.8 3.2-2.2 7.4-2.6 11-1 8.6 3.6 18.8 3.6 27.4 0 3.6-1.6 7.8-1.2 11 1s5.2 5.8 5.2 9.8v74.6c0.4 16.6-13.2 30-29.8 30z m-6.4-89.6v59.6c0 3.6 3 6.6 6.6 6.6 3.6 0 6.6-3 6.6-6.6v-59.6c-4.4 0.4-9 0.4-13.2 0z" fill="#4C4372" p-id="4157"></path><path d="M106.6 477.8c-32.4 0-58.8-26.4-58.8-58.8v-90.2c0-6.4 5.2-11.8 11.8-11.8h94c6.4 0 11.8 5.2 11.8 11.8v90.2c0 32.4-26.4 58.8-58.8 58.8z m-35.2-137.2v78.4c0 19.4 15.8 35.4 35.4 35.4 19.4 0 35.4-15.8 35.4-35.4v-78.4H71.4zM870.2 443.4H617.6c-6.4 0-11.8-5.2-11.8-11.8v-71.4c0-6.4 5.2-11.8 11.8-11.8h252.6c6.4 0 11.8 5.2 11.8 11.8v71.4c0 6.6-5.2 11.8-11.8 11.8zM629.4 420h229.2v-48H629.4v48zM943.4 340.6h-52.2c-6.4 0-11.8-5.2-11.8-11.8v-48.2c0-20.8 17-37.8 37.8-37.8 20.8 0 37.8 17 37.8 37.8v48.2c0 6.6-5.2 11.8-11.6 11.8z m-40.4-23.4h28.6v-36.4c0-7.8-6.4-14.4-14.4-14.4s-14.4 6.4-14.4 14.4v36.4z" fill="#4C4372" p-id="4158"></path><path d="M870.2 409.2H617.6c-6.4 0-11.8-5.2-11.8-11.8s5.2-11.8 11.8-11.8h252.6c6.4 0 11.8 5.2 11.8 11.8s-5.2 11.8-11.8 11.8zM917.4 567c-16.6 0-30-13.4-30-30v-74.6c0-4 2-7.6 5.2-9.8 3.2-2.2 7.4-2.6 11-1 8.6 3.6 18.8 3.6 27.4 0 3.6-1.6 7.8-1.2 11 1s5.2 5.8 5.2 9.8v74.6c0.2 16.6-13.4 30-29.8 30z m-6.6-89.6v59.6c0 3.6 3 6.6 6.6 6.6 3.6 0 6.6-3 6.6-6.6v-59.6c-4.4 0.4-9 0.4-13.2 0z" fill="#4C4372" p-id="4159"></path><path d="M917.4 477.8c-32.4 0-58.8-26.4-58.8-58.8v-90.2c0-6.4 5.2-11.8 11.8-11.8h94c6.4 0 11.8 5.2 11.8 11.8v90.2c-0.2 32.4-26.4 58.8-58.8 58.8zM882 340.6v78.4c0 19.4 15.8 35.4 35.4 35.4 19.4 0 35.4-15.8 35.4-35.4v-78.4H882zM556.4 605.8h-88.8c-6.4 0-11.8-5.2-11.8-11.8v-36c0-6.4 5.2-11.8 11.8-11.8h88.8c6.4 0 11.8 5.2 11.8 11.8v36c0 6.6-5.4 11.8-11.8 11.8z m-77-23.4h65.4v-12.6h-65.4v12.6z" fill="#4C4372" p-id="4160"></path><path d="M529.8 677h-35.6c-6.4 0-11.8-5.2-11.8-11.8V594c0-6.4 5.2-11.8 11.8-11.8h35.6c6.4 0 11.8 5.2 11.8 11.8v71.2c-0.2 6.6-5.4 11.8-11.8 11.8zM506 653.6h12v-47.8h-12v47.8z" fill="#4C4372" p-id="4161"></path><path d="M565 781h-105.8c-26.4 0-47.8-21.4-47.8-47.8v-32c0-26.4 21.4-47.8 47.8-47.8h105.8c26.4 0 47.8 21.4 47.8 47.8v32c-0.2 26.4-21.6 47.8-47.8 47.8z m-106-104c-13.4 0-24.2 10.8-24.2 24.2v32c0 13.4 10.8 24.2 24.2 24.2h105.8c13.4 0 24.2-10.8 24.2-24.2v-32c0-13.4-10.8-24.2-24.2-24.2h-105.8z" fill="#4C4372" p-id="4162"></path><path d="M512 752.6c-19.4 0-35.2-15.8-35.2-35.2 0-19.4 15.8-35.2 35.2-35.2 19.4 0 35.2 15.8 35.2 35.2 0 19.4-15.8 35.2-35.2 35.2z m0-47.2c-6.6 0-11.8 5.4-11.8 11.8 0 6.6 5.4 11.8 11.8 11.8 6.6 0 11.8-5.4 11.8-11.8s-5.2-11.8-11.8-11.8z" fill="#4C4372" p-id="4163"></path><path d="M459.8 520c-16.8 0-30.4-13.6-30.4-30.4 0-16.8 13.6-30.4 30.4-30.4s30.4 13.6 30.4 30.4c-0.2 16.8-13.8 30.4-30.4 30.4z m0-37.2c-3.8 0-6.8 3-6.8 6.8s3 6.8 6.8 6.8 6.8-3 6.8-6.8c0-3.6-3-6.8-6.8-6.8zM564.2 520c-16.8 0-30.4-13.6-30.4-30.4 0-16.8 13.6-30.4 30.4-30.4 16.8 0 30.4 13.6 30.4 30.4 0 16.8-13.6 30.4-30.4 30.4z m0-37.2c-3.8 0-6.8 3-6.8 6.8s3 6.8 6.8 6.8 6.8-3 6.8-6.8c0.2-3.6-3-6.8-6.8-6.8z" fill="#4C4372" p-id="4164"></path></svg>